<svg xmlns="http://www.w3.org/2000/svg" class="icon icon-tabler icon-tabler-dimensions" width="24" height="24" viewBox="0 0 24 24" stroke-width="2" stroke="#5C22C9" fill="none" stroke-linecap="round" stroke-linejoin="round">
   <path stroke="none" d="M0 0h24v24H0z" fill="none"></path>
   <path d="M3 5h11"></path>
   <path d="M12 7l2 -2l-2 -2"></path>
   <path d="M5 3l-2 2l2 2"></path>
   <path d="M19 10v11"></path>
   <path d="M17 19l2 2l2 -2"></path>
   <path d="M21 12l-2 -2l-2 2"></path>
   <path d="M3 10m0 2a2 2 0 0 1 2 -2h7a2 2 0 0 1 2 2v7a2 2 0 0 1 -2 2h-7a2 2 0 0 1 -2 -2z"></path>
</svg>